<?xml version="1.0" encoding="UTF-8" standalone="no"?>
<svg
   xmlns:dc="http://purl.org/dc/elements/1.1/"
   xmlns:cc="http://creativecommons.org/ns#"
   xmlns:rdf="http://www.w3.org/1999/02/22-rdf-syntax-ns#"
   xmlns:svg="http://www.w3.org/2000/svg"
   xmlns="http://www.w3.org/2000/svg"
   xmlns:sodipodi="http://sodipodi.sourceforge.net/DTD/sodipodi-0.dtd"
   xmlns:inkscape="http://www.inkscape.org/namespaces/inkscape"
   aria-hidden="true"
   focusable="false"
   data-prefix="fas"
   data-icon="ad"
   class="svg-inline--fa fa-ad fa-w-16"
   role="img"
   viewBox="0 0 512 384"
   version="1.1"
   id="svg1392"
   sodipodi:docname="ad-solid.svg"
   width="512"
   height="384"
   inkscape:version="0.92.4 (5da689c313, 2019-01-14)">
  <metadata
     id="metadata1398">
    <rdf:RDF>
      <cc:Work
         rdf:about="">
        <dc:format>image/svg+xml</dc:format>
        <dc:type
           rdf:resource="http://purl.org/dc/dcmitype/StillImage" />
      </cc:Work>
    </rdf:RDF>
  </metadata>
  <defs
     id="defs1396" />
  <sodipodi:namedview
     pagecolor="#ffffff"
     bordercolor="#666666"
     borderopacity="1"
     objecttolerance="10"
     gridtolerance="10"
     guidetolerance="10"
     inkscape:pageopacity="0"
     inkscape:pageshadow="2"
     inkscape:window-width="1920"
     inkscape:window-height="1017"
     id="namedview1394"
     showgrid="false"
     inkscape:zoom="0.4609375"
     inkscape:cx="256"
     inkscape:cy="192"
     inkscape:window-x="-8"
     inkscape:window-y="-8"
     inkscape:window-maximized="1"
     inkscape:current-layer="svg1392" />
  <path
     d="m 157.52,208 h 36.96 L 176,154.78 Z M 352,192 c -13.23,0 -24,10.77 -24,24 0,13.23 10.77,24 24,24 13.23,0 24,-10.77 24,-24 0,-13.23 -10.77,-24 -24,-24 z M 464,0 H 48 C 21.5,0 0,21.5 0,48 v 288 c 0,26.5 21.5,48 48,48 h 416 c 26.5,0 48,-21.5 48,-48 V 48 C 512,21.5 490.5,0 464,0 Z M 250.58,288 h -16.94 c -6.81,0 -12.88,-4.32 -15.12,-10.75 L 211.15,256 h -70.29 l -7.38,21.25 A 16,16 0 0 1 118.36,288 H 101.42 C 90.41,288 82.69,277.15 86.3,266.75 L 140,112.12 A 23.995,23.995 0 0 1 162.67,96 h 26.66 A 23.99,23.99 0 0 1 212,112.13 l 53.69,154.62 C 269.3,277.15 261.58,288 250.58,288 Z M 424,272 c 0,8.84 -7.16,16 -16,16 h -16 c -4.85,0 -9.04,-2.27 -11.98,-5.68 -8.62,3.66 -18.09,5.68 -28.02,5.68 -39.7,0 -72,-32.3 -72,-72 0,-39.7 32.3,-72 72,-72 8.46,0 16.46,1.73 24,4.42 V 112 c 0,-8.84 7.16,-16 16,-16 h 16 c 8.84,0 16,7.16 16,16 z"
     id="path1390"
     style="fill:#6c757d;fill-opacity:1"
     inkscape:connector-curvature="0" />
</svg>
