<?xml version="1.0" encoding="UTF-8" standalone="no"?>
<svg
   xmlns:dc="http://purl.org/dc/elements/1.1/"
   xmlns:cc="http://creativecommons.org/ns#"
   xmlns:rdf="http://www.w3.org/1999/02/22-rdf-syntax-ns#"
   xmlns:svg="http://www.w3.org/2000/svg"
   xmlns="http://www.w3.org/2000/svg"
   xmlns:sodipodi="http://sodipodi.sourceforge.net/DTD/sodipodi-0.dtd"
   xmlns:inkscape="http://www.inkscape.org/namespaces/inkscape"
   aria-hidden="true"
   focusable="false"
   data-prefix="fab"
   data-icon="android"
   class="svg-inline--fa fa-android fa-w-18"
   role="img"
   viewBox="0 0 576 325.12192"
   version="1.1"
   id="svg829"
   sodipodi:docname="android-brands.svg"
   width="576"
   height="325.12192"
   inkscape:version="0.92.4 (5da689c313, 2019-01-14)">
  <metadata
     id="metadata835">
    <rdf:RDF>
      <cc:Work
         rdf:about="">
        <dc:format>image/svg+xml</dc:format>
        <dc:type
           rdf:resource="http://purl.org/dc/dcmitype/StillImage" />
      </cc:Work>
    </rdf:RDF>
  </metadata>
  <defs
     id="defs833" />
  <sodipodi:namedview
     pagecolor="#ffffff"
     bordercolor="#666666"
     borderopacity="1"
     objecttolerance="10"
     gridtolerance="10"
     guidetolerance="10"
     inkscape:pageopacity="0"
     inkscape:pageshadow="2"
     inkscape:window-width="1920"
     inkscape:window-height="1017"
     id="namedview831"
     showgrid="false"
     inkscape:zoom="0.4609375"
     inkscape:cx="288"
     inkscape:cy="128"
     inkscape:window-x="-8"
     inkscape:window-y="-8"
     inkscape:window-maximized="1"
     inkscape:current-layer="svg829" />
  <path
     d="m 420.55,243.05193 a 24,24 0 1 1 24,-24 24,24 0 0 1 -24,24 m -265.1,0 a 24,24 0 1 1 24,-24 24,24 0 0 1 -24,24 m 273.7,-144.480001 47.94,-83 A 10,10 0 1 0 459.82,5.5719285 v 0 L 411.28,89.641929 a 301.25,301.25 0 0 0 -246.56,0 L 116.18,5.5719285 A 10,10 0 1 0 98.91,15.571929 v 0 l 47.94,83 C 64.53,143.34193 8.24,226.67193 0,325.12193 h 576 c -8.24,-98.45 -64.54,-181.78 -146.85,-226.550001"
     id="path827"
     style="fill:#3ddc84;fill-opacity:1"
     inkscape:connector-curvature="0" />
</svg>
